# Exported from Wings 3D 2.1.5
mtllib DroneDefender.mtl
o octotoad1
#42 vertices, 44 faces
v 1.66800000 0.55600000 0.55600000
v 1.66800000 0.55600000 -0.55600000
v 1.66800000 -0.55600000 0.55600000
v 1.66800000 -0.55600000 -0.55600000
v -1.66800000 0.55600000 0.55600000
v -1.66800000 0.55600000 -0.55600000
v -1.66800000 -0.55600000 0.55600000
v -1.66800000 -0.55600000 -0.55600000
v 0.55600000 1.66800000 0.55600000
v 0.55600000 1.66800000 -0.55600000
v 0.55600000 -1.66800000 0.55600000
v 0.55600000 -1.66800000 -0.55600000
v 0.55600000 0.55600000 1.66800000
v 0.55600000 0.55600000 -1.66800000
v 0.55600000 -0.55600000 1.66800000
v 0.55600000 -0.55600000 -1.66800000
v -0.55600000 1.66800000 0.55600000
v -0.55600000 1.66800000 -0.55600000
v -0.55600000 -1.66800000 0.55600000
v -0.55600000 -1.66800000 -0.55600000
v -0.55600000 0.55600000 1.66800000
v -0.55600000 0.55600000 -1.66800000
v -0.55600000 -0.55600000 1.66800000
v -0.55600000 -0.55600000 -1.66800000
v 0.55600000 2.23155556 -0.78943235
v -0.55600000 2.23155556 -0.78943235
v 0.55600000 1.76516062 -2.61049395
v -0.55600000 1.76516062 -2.61049395
v -0.55600000 2.23155556 -0.46088889
v 0.55600000 2.23155556 -0.46088889
v -2.34170909 -2.05703709 0.14233600
v -2.34170909 -2.05703709 -0.14233600
v -2.05703709 -2.34170909 -0.14233600
v -2.05703709 -2.34170909 0.14233600
v 2.34170909 -2.05703709 -0.14233600
v 2.34170909 -2.05703709 0.14233600
v 2.05703709 -2.34170909 0.14233600
v 2.05703709 -2.34170909 -0.14233600
v 0.22017600 -2.28881291 1.84846091
v 0.22017600 -1.84846091 2.28881291
v -0.22017600 -1.84846091 2.28881291
v -0.22017600 -2.28881291 1.84846091
vt 4.2611111e-2 0.62273331
vt 9.8426986e-2 0.79969226
vt 0.12729375 0.36342222
vt 0.17538934 0.63732382
vt 0.20095538 0.72408737
vt 0.23040766 0.66531801
vt 0.23072854 0.50589826
vt 0.23194603 0.67055187
vt 0.23863644 0.66323616
vt 0.23991088 0.66784203
vt 0.27300746 0.61771652
vt 0.28531584 0.54809537
vt 0.29112470 0.56549953
vt 0.29157088 0.68778336
vt 0.29390436 0.95271758
vt 0.29556131 0.54699535
vt 0.29991520 0.56398188
vt 0.31877030 0.82074604
vt 0.32311627 0.49749008
vt 0.34505135 0.60347408
vt 0.34666395 0.36601858
vt 0.36830221 0.67266956
vt 0.40044708 0.62807048
vt 0.40198341 0.63262944
vt 0.40870662 0.62630101
vt 0.41047407 0.63149117
vt 0.42080817 0.81091038
vt 0.43940770 0.57818650
vt 0.46883873 0.66415435
vt 0.47474907 0.31790013
vt 0.48740206 0.18164703
vt 0.52518398 0.95271758
vt 0.53933653 0.50343276
vt 0.59389350 0.45241959
vt 0.60460463 0.67810932
vt 0.61805667 0.32455806
vt 0.64372385 0.40707885
vt 0.64414926 0.23040098
vt 0.64581459 0.33461597
vt 0.64900547 4.1166667e-2
vt 0.64998124 0.31358141
vt 0.66942913 0.40767372
vt 0.69755287 0.33937392
vt 0.70013733 0.45241959
vt 0.70322011 0.32507519
vt 0.72807852 0.34171349
vt 0.81253862 0.23476299
vt 0.81634097 4.4512415e-2
vt 0.86245247 0.38962827
vt 0.91275556 0.25716332
vn 0.85476344 0.36700100 0.36700100
vn 0.85476344 0.36700100 -0.36700100
vn 0.82934718 -8.6249420e-2 0.55203650
vn 0.82934718 -8.6249420e-2 -0.55203650
vn -0.85476344 0.36700100 0.36700100
vn -0.85476344 0.36700100 -0.36700100
vn -0.82934718 -8.6249420e-2 0.55203650
vn -0.82934718 -8.6249420e-2 -0.55203650
vn 0.56130641 0.70425083 0.43470206
vn 0.91908181 0.35942656 -0.16155855
vn 0.31682932 -0.89748047 0.30683544
vn 8.6249420e-2 -0.82934718 -0.55203650
vn 0.36700100 0.36700100 0.85476344
vn 0.59655368 -9.7710123e-3 -0.80251370
vn 0.55601551 -7.7602375e-2 0.82754131
vn 0.36700100 -0.36700100 -0.85476344
vn -0.56130641 0.70425083 0.43470206
vn -0.91908181 0.35942656 -0.16155855
vn -0.31682932 -0.89748047 0.30683544
vn -8.6249420e-2 -0.82934718 -0.55203650
vn -0.36700100 0.36700100 0.85476344
vn -0.59655368 -9.7710123e-3 -0.80251370
vn -0.55601551 -7.7602375e-2 0.82754131
vn -0.36700100 -0.36700100 -0.85476344
vn 0.70988669 0.69878883 -8.8062807e-2
vn -0.70988669 0.69878883 -8.8062807e-2
vn 0.67415831 0.23862900 -0.69897552
vn -0.67415831 0.23862900 -0.69897552
vn -0.45886415 0.86021505 0.22242699
vn 0.45886415 0.86021505 0.22242699
vn -0.85809967 -0.22905693 0.45956271
vn -0.85809967 -0.22905693 -0.45956271
vn -0.22905693 -0.85809967 -0.45956271
vn -0.22905693 -0.85809967 0.45956271
vn 0.85809967 -0.22905693 -0.45956271
vn 0.85809967 -0.22905693 0.45956271
vn 0.22905693 -0.85809967 0.45956271
vn 0.22905693 -0.85809967 -0.45956271
vn 0.46782731 -0.85745755 0.21425255
vn 0.46782731 -0.21425255 0.85745755
vn -0.46782731 -0.21425255 0.85745755
vn -0.46782731 -0.85745755 0.21425255
g octotoad1_octotoad1_auv
usemtl octotoad1_auv
s 1
f 1/1/1 3/4/3 4/5/4 2/2/2
f 1/1/1 13/3/13 15/7/15 3/4/3
f 2/49/2 10/46/10 9/47/9 1/50/1
f 2/49/2 14/44/14 10/46/10
f 3/4/3 15/7/15 11/11/11
f 3/4/3 36/6/36 35/8/35 4/5/4
f 4/5/4 16/18/16 14/15/14 2/2/2
f 4/5/4 35/8/35 38/10/38 12/14/12
f 5/31/5 17/38/17 18/36/18 6/30/6
f 5/31/5 21/40/21 17/38/17
f 6/35/6 8/29/8 7/28/7 5/33/5
f 6/35/6 22/32/22 24/27/24 8/29/8
f 7/28/7 23/19/23 21/21/21 5/33/5
f 7/28/7 31/25/31 34/23/34 19/20/19
f 8/29/8 24/27/24 20/22/20
f 8/29/8 32/26/32 31/25/31 7/28/7
f 9/47/9 13/48/13 1/50/1
f 9/47/9 17/38/17 21/40/21 13/48/13
f 9/47/9 30/45/30 29/41/29 17/38/17
f 10/46/10 25/43/25 30/45/30 9/47/9
f 11/11/11 19/20/19 20/22/20 12/14/12
f 11/11/11 37/9/37 36/6/36 3/4/3
f 11/11/11 39/13/39 42/17/42 19/20/19
f 12/14/12 16/18/16 4/5/4
f 12/14/12 20/22/20 24/27/24 16/18/16
f 12/14/12 38/10/38 37/9/37 11/11/11
f 13/3/13 21/21/21 23/19/23 15/7/15
f 14/44/14 27/42/27 25/43/25 10/46/10
f 15/7/15 40/12/40 39/13/39 11/11/11
f 16/18/16 24/27/24 22/32/22 14/15/14
f 17/38/17 29/41/29 26/39/26 18/36/18
f 18/36/18 22/34/22 6/30/6
f 18/36/18 26/39/26 28/37/28 22/34/22
f 19/20/19 23/19/23 7/28/7
f 19/20/19 34/23/34 33/24/33 20/22/20
f 19/20/19 42/17/42 41/16/41 23/19/23
f 20/22/20 33/24/33 32/26/32 8/29/8
f 22/34/22 28/37/28 27/42/27 14/44/14
f 23/19/23 41/16/41 40/12/40 15/7/15
f 25/43/25 27/42/27 28/37/28 26/39/26
f 26/39/26 29/41/29 30/45/30 25/43/25
f 32/26/32 33/24/33 34/23/34 31/25/31
f 36/6/36 37/9/37 38/10/38 35/8/35
f 40/12/40 41/16/41 42/17/42 39/13/39
